<svg width="564" height="564" viewBox="0 0 564 564" fill="none" xmlns="http://www.w3.org/2000/svg">
<path d="M42.3004 204.399V311.661C42.3004 312.93 43.3269 313.956 44.5959 313.956C45.8649 313.956 46.8914 312.93 46.8914 311.661V206.695L42.9716 202.775C42.5542 203.192 42.2948 203.762 42.2948 204.399" fill="white"/>
<path d="M154.158 204.399C154.158 203.13 153.132 202.104 151.863 202.104H44.5956C43.964 202.104 43.3887 202.358 42.9713 202.781L46.8911 206.7H151.857C153.126 206.7 154.153 205.674 154.153 204.405" fill="white"/>
<path d="M521.701 359.601V252.339C521.701 251.07 520.674 250.044 519.405 250.044C518.136 250.044 517.11 251.07 517.11 252.339V357.305L521.029 361.225C521.447 360.808 521.706 360.238 521.706 359.601" fill="white"/>
<path d="M517.103 357.305H412.143C410.868 357.305 409.842 358.332 409.842 359.601C409.842 360.87 410.868 361.896 412.143 361.896H519.404C520.042 361.896 520.617 361.642 521.029 361.225L517.103 357.3V357.305Z" fill="white"/>
<path d="M241.273 242.052H263.416V274.465L290.928 242.052H317.176L286.929 276.405L318.208 321.948H291.61L271.521 292.27L263.416 301.289V321.948H241.273V242.052Z" fill="white"/>
<path d="M354.215 321.948C348.287 321.948 342.8 320.91 337.752 318.824C332.704 316.737 328.35 313.906 324.695 310.318C321.035 306.731 318.164 302.524 316.077 297.696C313.99 292.868 312.947 287.708 312.947 282.22V282C312.947 276.512 313.99 271.34 316.077 266.473C318.158 261.611 321.069 257.365 324.802 253.744C328.53 250.117 332.924 247.269 337.972 245.182C343.019 243.095 348.507 242.052 354.435 242.052C360.363 242.052 365.85 243.095 370.898 245.182C375.946 247.269 380.3 250.106 383.96 253.687C387.615 257.274 390.491 261.482 392.578 266.31C394.659 271.137 395.708 276.292 395.708 281.78V282C395.708 287.488 394.665 292.665 392.578 297.533C390.491 302.394 387.581 306.641 383.853 310.262C380.119 313.889 375.731 316.737 370.684 318.824C365.636 320.91 360.148 321.948 354.221 321.948M354.378 302.744C357.311 302.744 359.99 302.197 362.415 301.097C364.841 300.003 366.888 298.52 368.58 296.653C370.266 294.786 371.586 292.609 372.545 290.122C373.498 287.634 373.977 285.001 373.977 282.22V282C373.977 279.225 373.498 276.586 372.545 274.098C371.592 271.611 370.233 269.417 368.473 267.511C366.713 265.61 364.621 264.093 362.201 262.954C359.776 261.82 357.103 261.256 354.164 261.256C351.226 261.256 348.569 261.803 346.189 262.903C343.803 263.997 341.745 265.48 340.019 267.347C338.299 269.214 336.979 271.391 336.06 273.878C335.14 276.366 334.684 279 334.684 281.78V282C334.684 284.786 335.157 287.414 336.111 289.902C337.064 292.389 338.406 294.583 340.126 296.484C341.852 298.39 343.922 299.907 346.347 301.041C348.772 302.174 351.446 302.738 354.384 302.738" fill="white"/>
<path d="M403.458 242.052H424.162L458.95 287.46V242.052H478.904V321.948H459.457L425.256 278.12V321.948H403.458V242.052Z" fill="white"/>
<path d="M85.0957 242.052H126.003C131.017 242.052 135.309 242.661 138.879 243.879C142.449 245.098 145.41 246.885 147.767 249.243C149.364 250.839 150.616 252.706 151.524 254.838C152.437 256.964 152.894 259.401 152.894 262.142V262.367C152.894 267.009 151.738 270.76 149.431 273.613C147.119 276.473 144.186 278.655 140.627 280.178C145.511 281.774 149.386 284.081 152.246 287.087C155.111 290.093 156.543 294.295 156.543 299.698V299.93C156.543 306.855 153.898 312.259 148.613 316.139C143.323 320.025 135.89 321.959 126.302 321.959H85.0957V242.058V242.052ZM120.594 273.895C124.017 273.895 126.623 273.326 128.417 272.181C130.204 271.042 131.096 269.287 131.096 266.93V266.704C131.096 264.499 130.255 262.807 128.586 261.628C126.911 260.45 124.401 259.857 121.051 259.857H106.669V273.895H120.594ZM123.792 304.143C127.215 304.143 129.843 303.517 131.665 302.259C133.493 301.001 134.406 299.196 134.406 296.833V296.608C134.406 294.397 133.532 292.648 131.784 291.357C130.03 290.065 127.294 289.417 123.566 289.417H106.674V304.143H123.797H123.792Z" fill="white"/>
<path d="M183.204 292.045L152.838 242.046H178.066L194.501 271.16L211.054 242.046H235.82L205.46 291.701V321.948H183.204V292.045Z" fill="white"/>
<path d="M263.416 242.052H241.273V321.954H263.416V242.052Z" fill="white"/>
<path d="M478.903 242.052H458.949V321.954H478.903V242.052Z" fill="white"/>
<path d="M106.669 242.052H85.0957V321.954H106.669V242.052Z" fill="white"/>
<path d="M183.204 292.045L152.838 242.046H178.066L194.501 271.16L205.46 291.701V321.948H183.204V292.045Z" fill="white"/>
</svg>
